pedal_clip_forces.mot
version=1
nRows=120
nColumns=4
inDegrees=yes
endheader
time	PedalClip_calcn_r_Fx	PedalClip_calcn_r_Fy	PedalClip_calcn_r_Fz
0.51074142	-53.5080766411077	-135.022960885673	-0
0.51129122	-53.5873081309563	-134.869217805141	-0
0.51184102	-53.6651905145745	-134.715452845654	-0
0.51234364	-53.7417153840255	-134.561377453076	-0
0.51284626	-53.8168848026998	-134.407001534281	-0
0.51323307	-53.8907140168724	-134.252497113831	-0
0.51361988	-53.9633165549243	-134.097683938856	-0
0.51382088	-54.034819982236	-133.942464666251	-0
0.51423369	-54.1052632104905	-133.787080984361	-0
0.51475884	-54.1747071203039	-133.631567470096	-0
0.51528398	-54.2432169565348	-133.475868449768	-0
0.51580913	-54.3108064289162	-133.32019391091	-0
0.51624855	-54.3775330051806	-133.164649749717	-0
0.51668796	-54.4434436472275	-133.009269832883	-0
0.51712738	-54.5085603827775	-132.854122556067	-0
0.5175668	-54.5728948561143	-132.699259587651	-0
0.51800622	-54.6364305530388	-132.544807218006	-0
0.51844564	-54.6991506063892	-132.390783275383	-0
0.51888506	-54.7610303551628	-132.237246625947	-0
0.51932448	-54.8220971081417	-132.084029007103	-0
0.5197639	-54.8823456381112	-131.9310696513	-0
0.52020332	-54.941774111065	-131.778318923669	-0
0.52064274	-55.0004207041643	-131.625625528078	-0
0.52108216	-55.0582626254833	-131.473042768536	-0
0.52152157	-55.1152912686116	-131.320430562291	-0
0.52196099	-55.1714975153574	-131.167559903104	-0
0.52240041	-55.2268118282236	-131.014532246019	-0
0.52283983	-55.2811993632526	-130.861390968663	-0
0.52327925	-55.3346703389949	-130.708121322376	-0
0.52371867	-55.3872737301063	-130.554667572918	-0
0.52415809	-55.4390157401385	-130.401145770109	-0
0.52459751	-55.4899274192983	-130.247492677504	-0
0.52503693	-55.5400636466967	-130.093518244956	-0
0.52547635	-55.5893927357131	-129.939369581468	-0
0.52591577	-55.6378651441443	-129.78524632337	-0
0.52635518	-55.6854773082579	-129.631133939833	-0
0.5267946	-55.7322003579793	-129.47716286085	-0
0.5272383	-55.778025396741	-129.323357928338	-0
0.52768199	-55.822964339421	-129.169623797637	-0
0.52812568	-55.8670360024128	-129.015821902348	-0
0.52856937	-55.9102639890004	-128.861783579941	-0
0.52901306	-55.952673463454	-128.707330329288	-0
0.52945676	-55.9942886142497	-128.552289177823	-0
0.52990045	-56.0351307558832	-128.396503911776	-0
0.53034414	-56.0752166530106	-128.239844702293	-0
0.53078582	-56.1145579227466	-128.082211032454	-0
0.53122883	-56.1531606113857	-127.923533680734	-0
0.53167072	-56.1910257661686	-127.763770749276	-0
0.53211404	-56.2281497840724	-127.602905430788	-0
0.53255601	-56.2645253260477	-127.440940484031	-0
0.53300007	-56.3001420742819	-127.277893925431	-0
0.53344185	-56.3349876970473	-127.113793536946	-0
0.53388753	-56.3690530670029	-126.948643635238	-0
0.53432824	-56.4023306336848	-126.782431820616	-0
0.53477829	-56.4347965668639	-126.615269148037	-0
0.53521573	-56.4664852811444	-126.446996230747	-0
0.53568181	-56.4974501646702	-126.277347697123	-0
0.53614789	-56.5276969344132	-126.106246981005	-0
0.53661398	-56.557135946456	-125.933975713262	-0
0.53708006	-56.5856062491693	-125.760985370328	-0
0.53754615	-56.6129524048046	-125.587799939855	-0
0.53801223	-56.6390928882368	-125.414786383863	-0
0.53847832	-56.6639759539825	-125.242395643651	-0
0.5389444	-56.6875534647704	-125.071230118428	-0
0.53941048	-56.7098205139052	-124.901684648198	-0
0.53987657	-56.73082809734	-124.733790767466	-0
0.54034265	-56.7506282729508	-124.567458811805	-0
0.54080874	-56.7692285119356	-124.40270679698	-0
0.54127482	-56.7866727351422	-124.239249048848	-0
0.5417409	-56.803007776579	-124.076771204096	-0
0.54220699	-56.8182545950891	-123.915183263897	-0
0.54267307	-56.8324558651836	-123.754248677653	-0
0.54313916	-56.8456322270097	-123.593778659159	-0
0.54360524	-56.8577649824274	-123.433819780842	-0
0.54407133	-56.8688763479113	-123.274187718682	-0
0.54453741	-56.8789815760603	-123.114618575327	-0
0.54497863	-56.8880678411878	-122.954957357701	-0
0.54555133	-56.8961837567539	-122.795077576601	-0
0.54612404	-56.9033747475234	-122.634889549985	-0
0.54669675	-56.9096868036957	-122.474559562968	-0
0.54731657	-56.915193220718	-122.313997219303	-0
0.54771976	-56.9199578999809	-122.152784791554	-0
0.54812295	-56.9239784083282	-121.990480395659	-0
0.54829687	-56.927220826615	-121.826904447335	-0
0.54868672	-56.9296673371056	-121.661671308494	-0
0.54914937	-56.9313011405302	-121.49440026977	-0
0.54961201	-56.9320834864676	-121.324779681054	-0
0.54977071	-56.9319032918276	-121.152888453571	-0
0.55017248	-56.9306266979748	-120.979156963723	-0
0.55064984	-56.9281656918772	-120.803726610969	-0
0.5511272	-56.9244394581718	-120.626781483102	-0
0.55147345	-56.9193772068787	-120.448719757288	-0
0.55202704	-56.9129555259139	-120.269711011873	-0
0.55258063	-56.9051340692425	-120.089922359932	-0
0.55295866	-56.895837821892	-119.909741058645	-0
0.55342379	-56.8850471937686	-119.729218478459	-0
0.55388891	-56.8728156993682	-119.548141909437	-0
0.55422654	-56.8591682647849	-119.366443141235	-0
0.55499435	-56.8440880224764	-119.18426034368	-0
0.55576216	-56.8276602422148	-119.001047216405	-0
0.55618514	-56.8100523044434	-118.81581768307	-0
0.55668921	-56.7913286194871	-118.627981231168	-0
0.55719327	-56.7713867281952	-118.437464463591	-0
0.55736856	-56.7501013092788	-118.244407006326	-0
0.55786545	-56.7273612498381	-118.049239642618	-0
0.55835546	-56.7030711224303	-117.852733878293	-0
0.55884547	-56.6771632501741	-117.655412828091	-0
0.55914274	-56.649717511865	-117.457160224174	-0
0.55991475	-56.6209648495904	-117.257743179015	-0
0.56037592	-56.5910770715131	-117.057292467192	-0
0.56086074	-56.5600641861428	-116.856291624229	-0
0.56134556	-56.5280152958795	-116.654787111551	-0
0.56169199	-56.4950220137537	-116.452748949615	-0
0.56238432	-56.4611155475697	-116.250587225133	-0
0.56307665	-56.4263534759871	-116.048593963227	-0
0.56348587	-56.3907884491318	-115.846950209381	-0
0.56396044	-56.3544558861867	-115.645816051369	-0
0.56443502	-56.3173471643405	-115.445493804088	-0
0.56474566	-56.279440963606	-115.246270480522	-0
0.56556721	-56.2406083213574	-115.047825714591	-0
